Coordinates
version=1
nRows=13
nColumns=36
inDegrees=yes

Units are S.I. units (second, meters, Newtons, ...)
If the header above contains a line with 'inDegrees', this indicates whether rotational values are in degrees (yes) or radians (no).

endheader
time	pelvis_tilt	pelvis_list	pelvis_rotation	pelvis_tx	pelvis_ty	pelvis_tz	hip_flexion_r	hip_adduction_r	hip_rotation_r	knee_angle_r	knee_angle_r_beta	ankle_angle_r	subtalar_angle_r	mtp_angle_r	hip_flexion_l	hip_adduction_l	hip_rotation_l	knee_angle_l	knee_angle_l_beta	ankle_angle_l	subtalar_angle_l	mtp_angle_l	lumbar_extension	lumbar_bending	lumbar_rotation	arm_flex_r	arm_add_r	arm_rot_r	elbow_flex_r	pro_sup_r	arm_flex_l	arm_add_l	arm_rot_l	elbow_flex_l	pro_sup_l
      2.70000000	    -33.22204219	      3.02685979	     -0.96780274	      0.54853514	      0.61613025	      0.12092832	    109.89189122	    -19.07528689	      5.87556321	     96.77625066	      1.68906421	     24.14743680	     -3.52089401	     -7.49999987	    106.35046562	    -11.62811801	      1.17648346	     96.09429750	      1.67716188	     26.55026607	     -8.91831073	     -7.49999987	    -41.62203601	     -0.20382184	      7.87043870	    110.14628687	    -19.37176594	     33.60339453	    121.86555991	     84.34565006	    106.01355681	    -10.80026870	     28.37944855	    109.20785977	     95.53462189
      2.71666670	    -33.47663534	      3.07270487	     -0.89910872	      0.56005896	      0.62592644	      0.12112644	    110.33627022	    -19.25593414	      5.75410296	     97.03934995	      1.69365616	     23.91004889	     -3.69907700	     -7.49999987	    106.84771926	    -11.33771116	      1.23959706	     96.46637734	      1.68365590	     26.41050338	     -9.25741742	     -7.49999987	    -41.55931102	     -0.16813098	      8.19681986	    109.54115328	    -20.04074024	     34.07753274	    122.90833823	     84.16653518	    105.52236407	    -10.24924027	     27.74689836	    109.66949557	     95.53569806
      2.73333330	    -33.69380535	      3.08123639	     -0.75343465	      0.55823388	      0.63577009	      0.11396895	    110.06727338	    -19.58785875	      5.52550918	     96.51145932	      1.68444273	     23.51384680	     -3.88077944	     -7.49999987	    106.67786523	    -10.84687843	      1.16395164	     96.17653807	      1.67859725	     26.15771196	     -9.54119940	     -7.49999987	    -41.70024115	     -0.03497494	      9.40607476	    109.80665951	    -22.57853220	     34.40638447	    124.04235791	     84.68508113	    104.98979769	     -7.96956910	     27.04512062	    108.44795198	     98.64374889
      2.75000000	    -33.83494957	      3.06949464	     -0.58050888	      0.56385866	      0.64795714	      0.11596524	    109.11823505	    -19.89439723	      5.20534287	     95.38274675	      1.66474298	     23.12717615	     -3.98691761	     -7.49999987	    105.87435247	    -10.29610622	      1.06801668	     95.31938986	      1.66363719	     26.10757072	     -9.65130985	     -7.49999987	    -41.65527029	      0.27182665	      9.60658479	    109.70876905	    -23.54577252	     34.77830807	    124.99166194	     83.58873371	    104.57301802	     -8.26596350	     26.77819217	    109.47181649	     99.36255652
      2.76666670	    -33.72444560	      3.06053118	     -0.40138101	      0.55690801	      0.65252554	      0.11219541	    107.77158246	    -20.24272677	      4.82628413	     93.97885477	      1.64024044	     22.74981302	     -3.89444879	     -7.49999987	    104.66625499	     -9.69469663	      0.95818769	     94.20941490	      1.64426448	     26.09814167	     -9.71834017	     -7.49999987	    -41.33393324	      0.71066724	      9.21613260	    108.86297733	    -24.80971926	     34.56047415	    125.56641958	     83.55492503	    104.71200929	     -9.28855705	     26.70659042	    110.15942039	     99.37696351
      2.78333330	    -33.88718227	      3.12622929	     -0.14156142	      0.55695383	      0.67194743	      0.11244708	    106.25779859	    -20.57245305	      4.38470621	     92.06831578	      1.60689525	     22.34016505	     -3.77289416	     -7.49999987	    103.28276022	     -8.97955322	      0.81444294	     92.50732881	      1.61455747	     25.79121530	    -10.07880238	     -7.49999987	    -41.18466235	      0.89837637	      9.16454494	    107.62432631	    -27.69617328	     35.49003347	    126.50747133	     80.47999604	    104.25915297	    -10.94847793	     28.41996408	    110.56627638	     97.19245905
      2.80000000	    -33.81830319	      3.25714645	      0.01160785	      0.56241055	      0.69689860	      0.11411067	    103.89344771	    -20.74768888	      3.85012647	     89.42721712	      1.56079938	     21.81435456	     -3.45727806	     -7.49999987	    101.06562634	     -8.35129237	      0.61673810	     90.17757830	      1.57389565	     25.73542810	    -10.10741344	     -7.49999987	    -41.15277514	      0.97374027	      8.74418914	    106.09667896	    -29.27284021	     35.21827359	    127.17492754	     79.63665631	    102.74171661	    -13.17268473	     28.59717524	    112.06746381	     95.81977201
      2.81666670	    -33.62354982	      3.28362344	      0.19955694	      0.56303686	      0.71170785	      0.11344419	    101.11005597	    -20.91284863	      3.18624974	     86.48393943	      1.50942949	     21.20539362	     -3.05864659	     -7.49999987	     98.52665756	     -7.71401120	      0.52097536	     87.54795632	      1.52800009	     25.58805711	    -10.06198379	     -7.49999987	    -40.73542933	      1.26880519	      8.28406423	    105.06400729	    -31.57869983	     34.95394012	    127.44503169	     79.55210444	    101.63945308	    -15.38582513	     28.84694708	    112.71148132	     95.85517493
      2.83333330	    -33.24709733	      3.16301001	      0.44719057	      0.56905037	      0.73754124	      0.12071933	     97.62584744	    -21.02242357	      2.28534964	     83.07852693	      1.44999383	     20.62093051	     -2.79788765	     -7.49999987	     95.48144713	     -7.06469872	      0.65096360	     84.44209756	      1.47379263	     25.04914090	    -10.58992534	     -7.49999987	    -40.70534880	      1.38984160	      6.94103563	    102.61626630	    -32.83895509	     34.72813261	    128.69438428	     76.96180763	    100.73093978	    -20.39107724	     30.92667859	    116.25931905	     93.73615756
      2.85000000	    -32.54914427	      3.10630120	      0.59031800	      0.58122961	      0.75055546	      0.12013010	     93.78962172	    -20.99257475	      1.47770901	     79.71159898	      1.39122985	     20.27334463	     -2.45864498	     -7.49999987	     91.96219648	     -6.58617396	      0.73540692	     81.31847122	      1.41927507	     24.73334628	    -10.77327497	     -7.49999987	    -40.16135359	      1.33560704	      5.84889480	     98.16617877	    -35.83612759	     33.00830645	    133.36976030	     67.99928140	     99.22214527	    -23.00927095	     30.68892520	    119.77875997	     89.65316453
      2.86666670	    -31.20885440	      3.12097274	      0.60828517	      0.59284417	      0.77583058	      0.12449587	     89.03439683	    -20.77453144	      0.78361337	     76.05949103	      1.32748855	     19.91921056	     -2.23373662	     -7.49999987	     87.44479612	     -6.18742655	      0.80709486	     77.88810792	      1.35940393	     24.56053725	    -10.87236827	     -7.49999987	    -39.78664516	      1.12940697	      4.70250718	     92.83659676	    -38.92308391	     33.16929142	    136.71667528	     67.81287785	     95.92229529	    -27.05473808	     30.63582335	    122.71784837	     88.87488645
      2.88333330	    -30.37883228	      3.00295938	      0.74584054	      0.59242592	      0.79737046	      0.12489733	     84.74204612	    -20.48818958	     -0.00211382	     72.18240509	      1.25982063	     19.17398264	     -2.35587686	     -7.49999987	     83.49135900	     -5.84337421	      0.94531123	     74.20729220	      1.29516158	     23.70537912	    -10.98700546	     -7.49999987	    -38.91090186	      0.88424403	      3.02020300	     84.09359211	    -41.16121423	     27.59424857	    138.31908584	     65.04624592	     93.61255876	    -31.40515416	     32.06387828	    125.54164004	     83.87396995
      2.90000000	    -29.19246163	      3.00501607	      0.78465158	      0.59880450	      0.83642674	      0.12698457	     79.57870846	    -20.11785555	     -0.90491868	     67.47587849	      1.17767625	     18.13527416	     -2.41329812	     -7.49999987	     78.62685310	     -5.54503433	      0.93340440	     69.64165688	      1.21547621	     22.41013101	    -11.06162035	     -7.49999987	    -38.57840947	      0.60772616	      1.77392264	     74.66659075	    -43.35735418	     22.81444201	    139.14885572	     64.44162638	     89.49352225	    -35.17676966	     33.41782701	    128.03836246	     81.91794420
